<?xml version="1.0" encoding="UTF-8" standalone="no"?>
<!DOCTYPE svg PUBLIC "-//W3C//DTD SVG 1.1//EN"
 "http://www.w3.org/Graphics/SVG/1.1/DTD/svg11.dtd">
<!-- Generated by graphviz version 13.1.0 (20250701.0955)
 -->
<!-- Title: interface/driver_pca9685_interface.h Pages: 1 -->
<svg width="510pt" height="176pt"
 viewBox="0.00 0.00 510.00 176.00" xmlns="http://www.w3.org/2000/svg" xmlns:xlink="http://www.w3.org/1999/xlink">
<g id="graph0" class="graph" transform="scale(1 1) rotate(0) translate(4 172)">
<title>interface/driver_pca9685_interface.h</title>
<!-- Node1 -->
<g id="Node000001" class="node">
<title>Node1</title>
<g id="a_Node000001"><a xlink:title="driver pca9685 interface header file">
<polygon fill="#999999" stroke="#666666" points="327.12,-168 204.62,-168 204.62,-136 327.12,-136 327.12,-168"/>
<text xml:space="preserve" text-anchor="start" x="212.62" y="-154.5" font-family="Helvetica,sans-Serif" font-size="10.00">interface/driver_pca9685</text>
<text xml:space="preserve" text-anchor="middle" x="265.88" y="-142.5" font-family="Helvetica,sans-Serif" font-size="10.00">_interface.h</text>
</a>
</g>
</g>
<!-- Node2 -->
<g id="Node000002" class="node">
<title>Node2</title>
<g id="a_Node000002"><a xlink:href="driver__pca9685__basic_8h.html" target="_top" xlink:title="driver pca9685 basic header file">
<polygon fill="white" stroke="#666666" points="121.75,-100 0,-100 0,-68 121.75,-68 121.75,-100"/>
<text xml:space="preserve" text-anchor="start" x="8" y="-86.5" font-family="Helvetica,sans-Serif" font-size="10.00">example/driver_pca9685</text>
<text xml:space="preserve" text-anchor="middle" x="60.88" y="-74.5" font-family="Helvetica,sans-Serif" font-size="10.00">_basic.h</text>
</a>
</g>
</g>
<!-- Node1&#45;&gt;Node2 -->
<g id="edge1_Node000001_Node000002" class="edge">
<title>Node1&#45;&gt;Node2</title>
<g id="a_edge1_Node000001_Node000002"><a xlink:title=" ">
<path fill="none" stroke="#63b8ff" d="M207.11,-132.08C176.02,-122.07 138.33,-109.94 108.99,-100.49"/>
<polygon fill="#63b8ff" stroke="#63b8ff" points="205.78,-135.33 216.37,-135.06 207.92,-128.67 205.78,-135.33"/>
</a>
</g>
</g>
<!-- Node4 -->
<g id="Node000004" class="node">
<title>Node4</title>
<g id="a_Node000004"><a xlink:href="driver__pca9685__interface__template_8c.html" target="_top" xlink:title="driver pca9685 interface template source file">
<polygon fill="white" stroke="#666666" points="262.12,-100 139.62,-100 139.62,-68 262.12,-68 262.12,-100"/>
<text xml:space="preserve" text-anchor="start" x="147.62" y="-86.5" font-family="Helvetica,sans-Serif" font-size="10.00">interface/driver_pca9685</text>
<text xml:space="preserve" text-anchor="middle" x="200.88" y="-74.5" font-family="Helvetica,sans-Serif" font-size="10.00">_interface_template.c</text>
</a>
</g>
</g>
<!-- Node1&#45;&gt;Node4 -->
<g id="edge3_Node000001_Node000004" class="edge">
<title>Node1&#45;&gt;Node4</title>
<g id="a_edge3_Node000001_Node000004"><a xlink:title=" ">
<path fill="none" stroke="#63b8ff" d="M242.94,-127.71C233.95,-118.59 223.89,-108.37 215.87,-100.22"/>
<polygon fill="#63b8ff" stroke="#63b8ff" points="240.23,-129.95 249.74,-134.61 245.21,-125.03 240.23,-129.95"/>
</a>
</g>
</g>
<!-- Node5 -->
<g id="Node000005" class="node">
<title>Node5</title>
<g id="a_Node000005"><a xlink:href="driver__pca9685__register__test_8h.html" target="_top" xlink:title="driver pca9685 register test header file">
<polygon fill="white" stroke="#666666" points="381.62,-100 280.12,-100 280.12,-68 381.62,-68 381.62,-100"/>
<text xml:space="preserve" text-anchor="start" x="288.12" y="-86.5" font-family="Helvetica,sans-Serif" font-size="10.00">test/driver_pca9685</text>
<text xml:space="preserve" text-anchor="middle" x="330.88" y="-74.5" font-family="Helvetica,sans-Serif" font-size="10.00">_register_test.h</text>
</a>
</g>
</g>
<!-- Node1&#45;&gt;Node5 -->
<g id="edge4_Node000001_Node000005" class="edge">
<title>Node1&#45;&gt;Node5</title>
<g id="a_edge4_Node000001_Node000005"><a xlink:title=" ">
<path fill="none" stroke="#63b8ff" d="M288.81,-127.71C297.8,-118.59 307.86,-108.37 315.88,-100.22"/>
<polygon fill="#63b8ff" stroke="#63b8ff" points="286.54,-125.03 282.01,-134.61 291.52,-129.95 286.54,-125.03"/>
</a>
</g>
</g>
<!-- Node7 -->
<g id="Node000007" class="node">
<title>Node7</title>
<g id="a_Node000007"><a xlink:href="driver__pca9685__write__test_8h.html" target="_top" xlink:title="driver pca9685 write test header file">
<polygon fill="white" stroke="#666666" points="501.62,-100 400.12,-100 400.12,-68 501.62,-68 501.62,-100"/>
<text xml:space="preserve" text-anchor="start" x="408.12" y="-86.5" font-family="Helvetica,sans-Serif" font-size="10.00">test/driver_pca9685</text>
<text xml:space="preserve" text-anchor="middle" x="450.88" y="-74.5" font-family="Helvetica,sans-Serif" font-size="10.00">_write_test.h</text>
</a>
</g>
</g>
<!-- Node1&#45;&gt;Node7 -->
<g id="edge6_Node000001_Node000007" class="edge">
<title>Node1&#45;&gt;Node7</title>
<g id="a_edge6_Node000001_Node000007"><a xlink:title=" ">
<path fill="none" stroke="#63b8ff" d="M320.01,-131.69C347.85,-121.76 381.33,-109.81 407.45,-100.49"/>
<polygon fill="#63b8ff" stroke="#63b8ff" points="318.92,-128.36 310.67,-135.02 321.27,-134.95 318.92,-128.36"/>
</a>
</g>
</g>
<!-- Node3 -->
<g id="Node000003" class="node">
<title>Node3</title>
<g id="a_Node000003"><a xlink:href="driver__pca9685__basic_8c.html" target="_top" xlink:title="driver pca9685 basic source file">
<polygon fill="white" stroke="#666666" points="121.75,-32 0,-32 0,0 121.75,0 121.75,-32"/>
<text xml:space="preserve" text-anchor="start" x="8" y="-18.5" font-family="Helvetica,sans-Serif" font-size="10.00">example/driver_pca9685</text>
<text xml:space="preserve" text-anchor="middle" x="60.88" y="-6.5" font-family="Helvetica,sans-Serif" font-size="10.00">_basic.c</text>
</a>
</g>
</g>
<!-- Node2&#45;&gt;Node3 -->
<g id="edge2_Node000002_Node000003" class="edge">
<title>Node2&#45;&gt;Node3</title>
<g id="a_edge2_Node000002_Node000003"><a xlink:title=" ">
<path fill="none" stroke="#63b8ff" d="M60.88,-56.31C60.88,-48.12 60.88,-39.38 60.88,-32.22"/>
<polygon fill="#63b8ff" stroke="#63b8ff" points="57.38,-56.18 60.88,-66.18 64.38,-56.18 57.38,-56.18"/>
</a>
</g>
</g>
<!-- Node6 -->
<g id="Node000006" class="node">
<title>Node6</title>
<g id="a_Node000006"><a xlink:href="driver__pca9685__register__test_8c.html" target="_top" xlink:title="driver pca9685 register test source file">
<polygon fill="white" stroke="#666666" points="381.62,-32 280.12,-32 280.12,0 381.62,0 381.62,-32"/>
<text xml:space="preserve" text-anchor="start" x="288.12" y="-18.5" font-family="Helvetica,sans-Serif" font-size="10.00">test/driver_pca9685</text>
<text xml:space="preserve" text-anchor="middle" x="330.88" y="-6.5" font-family="Helvetica,sans-Serif" font-size="10.00">_register_test.c</text>
</a>
</g>
</g>
<!-- Node5&#45;&gt;Node6 -->
<g id="edge5_Node000005_Node000006" class="edge">
<title>Node5&#45;&gt;Node6</title>
<g id="a_edge5_Node000005_Node000006"><a xlink:title=" ">
<path fill="none" stroke="#63b8ff" d="M330.88,-56.31C330.88,-48.12 330.88,-39.38 330.88,-32.22"/>
<polygon fill="#63b8ff" stroke="#63b8ff" points="327.38,-56.18 330.88,-66.18 334.38,-56.18 327.38,-56.18"/>
</a>
</g>
</g>
<!-- Node8 -->
<g id="Node000008" class="node">
<title>Node8</title>
<g id="a_Node000008"><a xlink:href="driver__pca9685__write__test_8c.html" target="_top" xlink:title="driver pca9685 write test source file">
<polygon fill="white" stroke="#666666" points="501.62,-32 400.12,-32 400.12,0 501.62,0 501.62,-32"/>
<text xml:space="preserve" text-anchor="start" x="408.12" y="-18.5" font-family="Helvetica,sans-Serif" font-size="10.00">test/driver_pca9685</text>
<text xml:space="preserve" text-anchor="middle" x="450.88" y="-6.5" font-family="Helvetica,sans-Serif" font-size="10.00">_write_test.c</text>
</a>
</g>
</g>
<!-- Node7&#45;&gt;Node8 -->
<g id="edge7_Node000007_Node000008" class="edge">
<title>Node7&#45;&gt;Node8</title>
<g id="a_edge7_Node000007_Node000008"><a xlink:title=" ">
<path fill="none" stroke="#63b8ff" d="M450.88,-56.31C450.88,-48.12 450.88,-39.38 450.88,-32.22"/>
<polygon fill="#63b8ff" stroke="#63b8ff" points="447.38,-56.18 450.88,-66.18 454.38,-56.18 447.38,-56.18"/>
</a>
</g>
</g>
</g>
</svg>
