<?xml version="1.0" encoding="UTF-8" standalone="no"?>
<!DOCTYPE svg PUBLIC "-//W3C//DTD SVG 1.1//EN"
 "http://www.w3.org/Graphics/SVG/1.1/DTD/svg11.dtd">
<!-- Generated by graphviz version 13.1.0 (20250701.0955)
 -->
<!-- Title: pca9685_basic_write Pages: 1 -->
<svg width="270pt" height="78pt"
 viewBox="0.00 0.00 270.00 78.00" xmlns="http://www.w3.org/2000/svg" xmlns:xlink="http://www.w3.org/1999/xlink">
<g id="graph0" class="graph" transform="scale(1 1) rotate(0) translate(4 74)">
<title>pca9685_basic_write</title>
<!-- Node1 -->
<g id="Node000001" class="node">
<title>Node1</title>
<g id="a_Node000001"><a xlink:title="basic example write">
<polygon fill="#999999" stroke="#666666" points="107.5,-42 0,-42 0,-22 107.5,-22 107.5,-42"/>
<text xml:space="preserve" text-anchor="middle" x="53.75" y="-28.5" font-family="Helvetica,sans-Serif" font-size="10.00">pca9685_basic_write</text>
</a>
</g>
</g>
<!-- Node2 -->
<g id="Node000002" class="node">
<title>Node2</title>
<g id="a_Node000002"><a xlink:href="group__pca9685__base__driver.html#ga04bb264778e4ff7dcbbb777a9867f22d" target="_top" xlink:title="convert the pwm to the register raw data">
<polygon fill="white" stroke="#666666" points="260.75,-70 144.25,-70 144.25,-38 260.75,-38 260.75,-70"/>
<text xml:space="preserve" text-anchor="start" x="152.25" y="-56.5" font-family="Helvetica,sans-Serif" font-size="10.00">pca9685_pwm_convert</text>
<text xml:space="preserve" text-anchor="middle" x="202.5" y="-44.5" font-family="Helvetica,sans-Serif" font-size="10.00">_to_register</text>
</a>
</g>
</g>
<!-- Node1&#45;&gt;Node2 -->
<g id="edge1_Node000001_Node000002" class="edge">
<title>Node1&#45;&gt;Node2</title>
<g id="a_edge1_Node000001_Node000002"><a xlink:title=" ">
<path fill="none" stroke="#63b8ff" d="M107.73,-39.94C115.8,-41.15 124.23,-42.42 132.58,-43.67"/>
<polygon fill="#63b8ff" stroke="#63b8ff" points="131.98,-47.12 142.39,-45.14 133.01,-40.19 131.98,-47.12"/>
</a>
</g>
</g>
<!-- Node3 -->
<g id="Node000003" class="node">
<title>Node3</title>
<g id="a_Node000003"><a xlink:href="group__pca9685__base__driver.html#ga075e19d832199135dad43db034df3da3" target="_top" xlink:title="write led channels">
<polygon fill="white" stroke="#666666" points="261.5,-20 143.5,-20 143.5,0 261.5,0 261.5,-20"/>
<text xml:space="preserve" text-anchor="middle" x="202.5" y="-6.5" font-family="Helvetica,sans-Serif" font-size="10.00">pca9685_write_channel</text>
</a>
</g>
</g>
<!-- Node1&#45;&gt;Node3 -->
<g id="edge2_Node000001_Node000003" class="edge">
<title>Node1&#45;&gt;Node3</title>
<g id="a_edge2_Node000001_Node000003"><a xlink:title=" ">
<path fill="none" stroke="#63b8ff" d="M107.73,-24.06C115.54,-22.89 123.69,-21.66 131.78,-20.45"/>
<polygon fill="#63b8ff" stroke="#63b8ff" points="132.26,-23.92 141.63,-18.97 131.23,-17 132.26,-23.92"/>
</a>
</g>
</g>
</g>
</svg>
