<?xml version="1.0" encoding="UTF-8" standalone="no"?>
<!DOCTYPE svg PUBLIC "-//W3C//DTD SVG 1.1//EN"
 "http://www.w3.org/Graphics/SVG/1.1/DTD/svg11.dtd">
<!-- Generated by graphviz version 13.1.0 (20250701.0955)
 -->
<!-- Title: pca9685_basic_init Pages: 1 -->
<svg width="286pt" height="1334pt"
 viewBox="0.00 0.00 286.00 1334.00" xmlns="http://www.w3.org/2000/svg" xmlns:xlink="http://www.w3.org/1999/xlink">
<g id="graph0" class="graph" transform="scale(1 1) rotate(0) translate(4 1330)">
<title>pca9685_basic_init</title>
<!-- Node1 -->
<g id="Node000001" class="node">
<title>Node1</title>
<g id="a_Node000001"><a xlink:title="basic example init">
<polygon fill="#999999" stroke="#666666" points="99.25,-691 0,-691 0,-671 99.25,-671 99.25,-691"/>
<text xml:space="preserve" text-anchor="middle" x="49.62" y="-677.5" font-family="Helvetica,sans-Serif" font-size="10.00">pca9685_basic_init</text>
</a>
</g>
</g>
<!-- Node2 -->
<g id="Node000002" class="node">
<title>Node2</title>
<g id="a_Node000002"><a xlink:href="group__pca9685__base__driver.html#gaee1e63e56cfea0485102d56b9962bc5a" target="_top" xlink:title="close the chip">
<polygon fill="white" stroke="#666666" points="247.25,-1326 166,-1326 166,-1306 247.25,-1306 247.25,-1326"/>
<text xml:space="preserve" text-anchor="middle" x="206.62" y="-1312.5" font-family="Helvetica,sans-Serif" font-size="10.00">pca9685_deinit</text>
</a>
</g>
</g>
<!-- Node1&#45;&gt;Node2 -->
<g id="edge1_Node000001_Node000002" class="edge">
<title>Node1&#45;&gt;Node2</title>
<g id="a_edge1_Node000001_Node000002"><a xlink:title=" ">
<path fill="none" stroke="#63b8ff" d="M50.55,-691.29C50.2,-764.17 51.62,-1202 135.25,-1297 140.54,-1303 147.5,-1307.2 155,-1310.12"/>
<polygon fill="#63b8ff" stroke="#63b8ff" points="153.79,-1313.41 164.38,-1313 155.84,-1306.72 153.79,-1313.41"/>
</a>
</g>
</g>
<!-- Node3 -->
<g id="Node000003" class="node">
<title>Node3</title>
<g id="a_Node000003"><a xlink:href="group__pca9685__base__driver.html#ga312009e8ce9443eb437908e09730096a" target="_top" xlink:title="initialize the chip">
<polygon fill="white" stroke="#666666" points="242,-1288 171.25,-1288 171.25,-1268 242,-1268 242,-1288"/>
<text xml:space="preserve" text-anchor="middle" x="206.62" y="-1274.5" font-family="Helvetica,sans-Serif" font-size="10.00">pca9685_init</text>
</a>
</g>
</g>
<!-- Node1&#45;&gt;Node3 -->
<g id="edge2_Node000001_Node000003" class="edge">
<title>Node1&#45;&gt;Node3</title>
<g id="a_edge2_Node000001_Node000003"><a xlink:title=" ">
<path fill="none" stroke="#63b8ff" d="M50.65,-691.11C51,-760.83 56.45,-1170.28 135.25,-1259 141.71,-1266.28 150.64,-1270.9 159.98,-1273.8"/>
<polygon fill="#63b8ff" stroke="#63b8ff" points="158.98,-1277.16 169.52,-1276.12 160.63,-1270.36 158.98,-1277.16"/>
</a>
</g>
</g>
<!-- Node4 -->
<g id="Node000004" class="node">
<title>Node4</title>
<g id="a_Node000004"><a xlink:href="group__pca9685__interface__driver.html#gaded79ad9a87d05eb690fced05aa6243f" target="_top" xlink:title="interface print format data">
<polygon fill="white" stroke="#666666" points="270.12,-1250 143.12,-1250 143.12,-1218 270.12,-1218 270.12,-1250"/>
<text xml:space="preserve" text-anchor="start" x="151.12" y="-1236.5" font-family="Helvetica,sans-Serif" font-size="10.00">pca9685_interface_debug</text>
<text xml:space="preserve" text-anchor="middle" x="206.62" y="-1224.5" font-family="Helvetica,sans-Serif" font-size="10.00">_print</text>
</a>
</g>
</g>
<!-- Node1&#45;&gt;Node4 -->
<g id="edge3_Node000001_Node000004" class="edge">
<title>Node1&#45;&gt;Node4</title>
<g id="a_edge3_Node000001_Node000004"><a xlink:title=" ">
<path fill="none" stroke="#63b8ff" d="M50.89,-691.43C52.77,-758.26 66.2,-1126.05 135.25,-1209 135.59,-1209.41 135.94,-1209.82 136.3,-1210.21"/>
<polygon fill="#63b8ff" stroke="#63b8ff" points="133.74,-1212.63 143.55,-1216.62 138.38,-1207.38 133.74,-1212.63"/>
</a>
</g>
</g>
<!-- Node5 -->
<g id="Node000005" class="node">
<title>Node5</title>
<g id="a_Node000005"><a xlink:href="group__pca9685__interface__driver.html#ga27ee24e9eed11825862285d92c2edad5" target="_top" xlink:title="interface delay ms">
<polygon fill="white" stroke="#666666" points="278,-1200 135.25,-1200 135.25,-1180 278,-1180 278,-1200"/>
<text xml:space="preserve" text-anchor="middle" x="206.62" y="-1186.5" font-family="Helvetica,sans-Serif" font-size="10.00">pca9685_interface_delay_ms</text>
</a>
</g>
</g>
<!-- Node1&#45;&gt;Node5 -->
<g id="edge4_Node000001_Node000005" class="edge">
<title>Node1&#45;&gt;Node5</title>
<g id="a_edge4_Node000001_Node000005"><a xlink:title=" ">
<path fill="none" stroke="#63b8ff" d="M50.94,-691.16C53.1,-754.69 67.8,-1096.99 135.25,-1171 135.84,-1171.65 136.45,-1172.28 137.08,-1172.88"/>
<polygon fill="#63b8ff" stroke="#63b8ff" points="134.84,-1175.58 144.95,-1178.77 139.04,-1169.98 134.84,-1175.58"/>
</a>
</g>
</g>
<!-- Node6 -->
<g id="Node000006" class="node">
<title>Node6</title>
<g id="a_Node000006"><a xlink:href="group__pca9685__interface__driver.html#ga750cd123a0666409c3b0f1f90737fc65" target="_top" xlink:title="interface iic bus deinit">
<polygon fill="white" stroke="#666666" points="261.88,-1162 151.38,-1162 151.38,-1130 261.88,-1130 261.88,-1162"/>
<text xml:space="preserve" text-anchor="start" x="159.38" y="-1148.5" font-family="Helvetica,sans-Serif" font-size="10.00">pca9685_interface_iic</text>
<text xml:space="preserve" text-anchor="middle" x="206.62" y="-1136.5" font-family="Helvetica,sans-Serif" font-size="10.00">_deinit</text>
</a>
</g>
</g>
<!-- Node1&#45;&gt;Node6 -->
<g id="edge5_Node000001_Node000006" class="edge">
<title>Node1&#45;&gt;Node6</title>
<g id="a_edge5_Node000001_Node000006"><a xlink:title=" ">
<path fill="none" stroke="#63b8ff" d="M51.24,-691.2C55.01,-750.74 76.83,-1053 135.25,-1121 137.17,-1123.24 139.31,-1125.27 141.61,-1127.13"/>
<polygon fill="#63b8ff" stroke="#63b8ff" points="139.61,-1130.01 149.89,-1132.59 143.46,-1124.16 139.61,-1130.01"/>
</a>
</g>
</g>
<!-- Node7 -->
<g id="Node000007" class="node">
<title>Node7</title>
<g id="a_Node000007"><a xlink:href="group__pca9685__interface__driver.html#gad77f721faac26070bdac69f6185d8979" target="_top" xlink:title="interface iic bus init">
<polygon fill="white" stroke="#666666" points="270.88,-1112 142.38,-1112 142.38,-1092 270.88,-1092 270.88,-1112"/>
<text xml:space="preserve" text-anchor="middle" x="206.62" y="-1098.5" font-family="Helvetica,sans-Serif" font-size="10.00">pca9685_interface_iic_init</text>
</a>
</g>
</g>
<!-- Node1&#45;&gt;Node7 -->
<g id="edge6_Node000001_Node000007" class="edge">
<title>Node1&#45;&gt;Node7</title>
<g id="a_edge6_Node000001_Node000007"><a xlink:title=" ">
<path fill="none" stroke="#63b8ff" d="M51.38,-691.49C55.7,-748.81 79.15,-1023.66 135.25,-1083 135.85,-1083.64 136.48,-1084.26 137.11,-1084.85"/>
<polygon fill="#63b8ff" stroke="#63b8ff" points="134.93,-1087.59 145.07,-1090.66 139.06,-1081.94 134.93,-1087.59"/>
</a>
</g>
</g>
<!-- Node8 -->
<g id="Node000008" class="node">
<title>Node8</title>
<g id="a_Node000008"><a xlink:href="group__pca9685__interface__driver.html#gac37cf5340e1b4815e6d06026be572f11" target="_top" xlink:title="interface iic bus read">
<polygon fill="white" stroke="#666666" points="273.88,-1074 139.38,-1074 139.38,-1054 273.88,-1054 273.88,-1074"/>
<text xml:space="preserve" text-anchor="middle" x="206.62" y="-1060.5" font-family="Helvetica,sans-Serif" font-size="10.00">pca9685_interface_iic_read</text>
</a>
</g>
</g>
<!-- Node1&#45;&gt;Node8 -->
<g id="edge7_Node000001_Node000008" class="edge">
<title>Node1&#45;&gt;Node8</title>
<g id="a_edge7_Node000001_Node000008"><a xlink:title=" ">
<path fill="none" stroke="#63b8ff" d="M51.6,-691.2C56.89,-744.63 83.88,-991.79 135.25,-1045 135.98,-1045.76 136.74,-1046.48 137.52,-1047.18"/>
<polygon fill="#63b8ff" stroke="#63b8ff" points="135.28,-1049.89 145.47,-1052.79 139.31,-1044.17 135.28,-1049.89"/>
</a>
</g>
</g>
<!-- Node9 -->
<g id="Node000009" class="node">
<title>Node9</title>
<g id="a_Node000009"><a xlink:href="group__pca9685__interface__driver.html#gaf9cfd1ad03f56528dcc00a8fbcd01fe8" target="_top" xlink:title="interface iic bus write">
<polygon fill="white" stroke="#666666" points="261.88,-1036 151.38,-1036 151.38,-1004 261.88,-1004 261.88,-1036"/>
<text xml:space="preserve" text-anchor="start" x="159.38" y="-1022.5" font-family="Helvetica,sans-Serif" font-size="10.00">pca9685_interface_iic</text>
<text xml:space="preserve" text-anchor="middle" x="206.62" y="-1010.5" font-family="Helvetica,sans-Serif" font-size="10.00">_write</text>
</a>
</g>
</g>
<!-- Node1&#45;&gt;Node9 -->
<g id="edge8_Node000001_Node000009" class="edge">
<title>Node1&#45;&gt;Node9</title>
<g id="a_edge8_Node000001_Node000009"><a xlink:title=" ">
<path fill="none" stroke="#63b8ff" d="M50.2,-691.28C49.01,-734.42 50.15,-902.98 135.25,-995 137.21,-997.12 139.37,-999.07 141.67,-1000.85"/>
<polygon fill="#63b8ff" stroke="#63b8ff" points="139.57,-1003.66 149.88,-1006.1 143.35,-997.76 139.57,-1003.66"/>
</a>
</g>
</g>
<!-- Node10 -->
<g id="Node000010" class="node">
<title>Node10</title>
<g id="a_Node000010"><a xlink:href="group__pca9685__interface__driver.html#ga570d0ed6704905625dd91eada724768d" target="_top" xlink:title="interface oe deinit">
<polygon fill="white" stroke="#666666" points="262.25,-986 151,-986 151,-954 262.25,-954 262.25,-986"/>
<text xml:space="preserve" text-anchor="start" x="159" y="-972.5" font-family="Helvetica,sans-Serif" font-size="10.00">pca9685_interface_oe</text>
<text xml:space="preserve" text-anchor="middle" x="206.62" y="-960.5" font-family="Helvetica,sans-Serif" font-size="10.00">_deinit</text>
</a>
</g>
</g>
<!-- Node1&#45;&gt;Node10 -->
<g id="edge9_Node000001_Node000010" class="edge">
<title>Node1&#45;&gt;Node10</title>
<g id="a_edge9_Node000001_Node000010"><a xlink:title=" ">
<path fill="none" stroke="#63b8ff" d="M50.83,-691.47C52.16,-730.56 62.05,-869.49 135.25,-945 137.05,-946.85 138.99,-948.57 141.04,-950.16"/>
<polygon fill="#63b8ff" stroke="#63b8ff" points="139.09,-953.07 149.4,-955.53 142.88,-947.18 139.09,-953.07"/>
</a>
</g>
</g>
<!-- Node11 -->
<g id="Node000011" class="node">
<title>Node11</title>
<g id="a_Node000011"><a xlink:href="group__pca9685__interface__driver.html#ga6df657cf5c8b6714c1ef87fbcc178e0f" target="_top" xlink:title="interface oe init">
<polygon fill="white" stroke="#666666" points="271.25,-936 142,-936 142,-916 271.25,-916 271.25,-936"/>
<text xml:space="preserve" text-anchor="middle" x="206.62" y="-922.5" font-family="Helvetica,sans-Serif" font-size="10.00">pca9685_interface_oe_init</text>
</a>
</g>
</g>
<!-- Node1&#45;&gt;Node11 -->
<g id="edge10_Node000001_Node000011" class="edge">
<title>Node1&#45;&gt;Node11</title>
<g id="a_edge10_Node000001_Node000011"><a xlink:title=" ">
<path fill="none" stroke="#63b8ff" d="M51.27,-691.37C54.08,-727.08 68.31,-846.11 135.25,-907 136.19,-907.85 137.16,-908.67 138.16,-909.44"/>
<polygon fill="#63b8ff" stroke="#63b8ff" points="136.25,-912.38 146.58,-914.72 139.96,-906.45 136.25,-912.38"/>
</a>
</g>
</g>
<!-- Node12 -->
<g id="Node000012" class="node">
<title>Node12</title>
<g id="a_Node000012"><a xlink:href="group__pca9685__interface__driver.html#gaee1faf8245538aef5b7f95a2fa4f7350" target="_top" xlink:title="interface oe write">
<polygon fill="white" stroke="#666666" points="262.25,-898 151,-898 151,-866 262.25,-866 262.25,-898"/>
<text xml:space="preserve" text-anchor="start" x="159" y="-884.5" font-family="Helvetica,sans-Serif" font-size="10.00">pca9685_interface_oe</text>
<text xml:space="preserve" text-anchor="middle" x="206.62" y="-872.5" font-family="Helvetica,sans-Serif" font-size="10.00">_write</text>
</a>
</g>
</g>
<!-- Node1&#45;&gt;Node12 -->
<g id="edge11_Node000001_Node000012" class="edge">
<title>Node1&#45;&gt;Node12</title>
<g id="a_edge11_Node000001_Node000012"><a xlink:title=" ">
<path fill="none" stroke="#63b8ff" d="M52.71,-691.4C59.27,-721.47 82.29,-809.42 135.25,-857 137.09,-858.65 139.05,-860.2 141.1,-861.65"/>
<polygon fill="#63b8ff" stroke="#63b8ff" points="138.89,-864.41 149.26,-866.58 142.51,-858.41 138.89,-864.41"/>
</a>
</g>
</g>
<!-- Node13 -->
<g id="Node000013" class="node">
<title>Node13</title>
<g id="a_Node000013"><a xlink:href="group__pca9685__base__driver.html#ga9c527b5a4e48a90fddef3eb638c846d8" target="_top" xlink:title="convert the output frequency to the register raw data">
<polygon fill="white" stroke="#666666" points="273.12,-848 140.12,-848 140.12,-816 273.12,-816 273.12,-848"/>
<text xml:space="preserve" text-anchor="start" x="148.12" y="-834.5" font-family="Helvetica,sans-Serif" font-size="10.00">pca9685_output_frequency</text>
<text xml:space="preserve" text-anchor="middle" x="206.62" y="-822.5" font-family="Helvetica,sans-Serif" font-size="10.00">_convert_to_register</text>
</a>
</g>
</g>
<!-- Node1&#45;&gt;Node13 -->
<g id="edge12_Node000001_Node000013" class="edge">
<title>Node1&#45;&gt;Node13</title>
<g id="a_edge12_Node000001_Node000013"><a xlink:title=" ">
<path fill="none" stroke="#63b8ff" d="M54.87,-691.45C65.11,-715.36 93.42,-774.51 135.25,-807 136.56,-808.02 137.92,-809 139.31,-809.94"/>
<polygon fill="#63b8ff" stroke="#63b8ff" points="137.27,-812.8 147.67,-814.85 140.82,-806.77 137.27,-812.8"/>
</a>
</g>
</g>
<!-- Node14 -->
<g id="Node000014" class="node">
<title>Node14</title>
<g id="a_Node000014"><a xlink:href="group__pca9685__base__driver.html#ga4368b3f7ec9db9155f4e1196396d4353" target="_top" xlink:title="set the chip active">
<polygon fill="white" stroke="#666666" points="258.12,-798 155.12,-798 155.12,-778 258.12,-778 258.12,-798"/>
<text xml:space="preserve" text-anchor="middle" x="206.62" y="-784.5" font-family="Helvetica,sans-Serif" font-size="10.00">pca9685_set_active</text>
</a>
</g>
</g>
<!-- Node1&#45;&gt;Node14 -->
<g id="edge13_Node000001_Node000014" class="edge">
<title>Node1&#45;&gt;Node14</title>
<g id="a_edge13_Node000001_Node000014"><a xlink:title=" ">
<path fill="none" stroke="#63b8ff" d="M57.69,-691.44C70.76,-709.95 100.59,-748.49 135.25,-769 138.06,-770.66 141.01,-772.18 144.06,-773.57"/>
<polygon fill="#63b8ff" stroke="#63b8ff" points="142.69,-776.79 153.27,-777.25 145.28,-770.29 142.69,-776.79"/>
</a>
</g>
</g>
<!-- Node15 -->
<g id="Node000015" class="node">
<title>Node15</title>
<g id="a_Node000015"><a xlink:href="group__pca9685__base__driver.html#ga4ead43e607a71ffaf3a91f8195641d9f" target="_top" xlink:title="set the address pin">
<polygon fill="white" stroke="#666666" points="263.38,-760 149.88,-760 149.88,-740 263.38,-740 263.38,-760"/>
<text xml:space="preserve" text-anchor="middle" x="206.62" y="-746.5" font-family="Helvetica,sans-Serif" font-size="10.00">pca9685_set_addr_pin</text>
</a>
</g>
</g>
<!-- Node1&#45;&gt;Node15 -->
<g id="edge14_Node000001_Node000015" class="edge">
<title>Node1&#45;&gt;Node15</title>
<g id="a_edge14_Node000001_Node000015"><a xlink:title=" ">
<path fill="none" stroke="#63b8ff" d="M65.27,-691.32C81.65,-702.46 109.3,-720.07 135.25,-731 139.77,-732.9 144.53,-734.67 149.36,-736.29"/>
<polygon fill="#63b8ff" stroke="#63b8ff" points="147.93,-739.51 158.52,-739.15 150.02,-732.83 147.93,-739.51"/>
</a>
</g>
</g>
<!-- Node16 -->
<g id="Node000016" class="node">
<title>Node16</title>
<g id="a_Node000016"><a xlink:href="group__pca9685__base__driver.html#gafe205693750e35373b4bb6083523ac1b" target="_top" xlink:title="set the all call address">
<polygon fill="white" stroke="#666666" points="260,-722 153.25,-722 153.25,-690 260,-690 260,-722"/>
<text xml:space="preserve" text-anchor="start" x="161.25" y="-708.5" font-family="Helvetica,sans-Serif" font-size="10.00">pca9685_set_all_call</text>
<text xml:space="preserve" text-anchor="middle" x="206.62" y="-696.5" font-family="Helvetica,sans-Serif" font-size="10.00">_address</text>
</a>
</g>
</g>
<!-- Node1&#45;&gt;Node16 -->
<g id="edge15_Node000001_Node000016" class="edge">
<title>Node1&#45;&gt;Node16</title>
<g id="a_edge15_Node000001_Node000016"><a xlink:title=" ">
<path fill="none" stroke="#63b8ff" d="M99.67,-688.91C113.03,-691.07 127.71,-693.43 141.77,-695.7"/>
<polygon fill="#63b8ff" stroke="#63b8ff" points="140.95,-699.11 151.38,-697.25 142.07,-692.2 140.95,-699.11"/>
</a>
</g>
</g>
<!-- Node17 -->
<g id="Node000017" class="node">
<title>Node17</title>
<g id="a_Node000017"><a xlink:href="group__pca9685__base__driver.html#gaeb8a923c0a0361a8b835f16c994767e4" target="_top" xlink:title="enable or disable the external clock pin">
<polygon fill="white" stroke="#666666" points="262.25,-672 151,-672 151,-640 262.25,-640 262.25,-672"/>
<text xml:space="preserve" text-anchor="start" x="159" y="-658.5" font-family="Helvetica,sans-Serif" font-size="10.00">pca9685_set_external</text>
<text xml:space="preserve" text-anchor="middle" x="206.62" y="-646.5" font-family="Helvetica,sans-Serif" font-size="10.00">_clock_pin</text>
</a>
</g>
</g>
<!-- Node1&#45;&gt;Node17 -->
<g id="edge16_Node000001_Node000017" class="edge">
<title>Node1&#45;&gt;Node17</title>
<g id="a_edge16_Node000001_Node000017"><a xlink:title=" ">
<path fill="none" stroke="#63b8ff" d="M99.67,-673.09C112.35,-671.04 126.21,-668.81 139.6,-666.65"/>
<polygon fill="#63b8ff" stroke="#63b8ff" points="139.9,-670.15 149.21,-665.1 138.78,-663.24 139.9,-670.15"/>
</a>
</g>
</g>
<!-- Node18 -->
<g id="Node000018" class="node">
<title>Node18</title>
<g id="a_Node000018"><a xlink:href="group__pca9685__base__driver.html#gafe568bcca0b1c4b2b57d474a7f655f5f" target="_top" xlink:title="set the output change type">
<polygon fill="white" stroke="#666666" points="258.5,-622 154.75,-622 154.75,-590 258.5,-590 258.5,-622"/>
<text xml:space="preserve" text-anchor="start" x="162.75" y="-608.5" font-family="Helvetica,sans-Serif" font-size="10.00">pca9685_set_output</text>
<text xml:space="preserve" text-anchor="middle" x="206.62" y="-596.5" font-family="Helvetica,sans-Serif" font-size="10.00">_change</text>
</a>
</g>
</g>
<!-- Node1&#45;&gt;Node18 -->
<g id="edge17_Node000001_Node000018" class="edge">
<title>Node1&#45;&gt;Node18</title>
<g id="a_edge17_Node000001_Node000018"><a xlink:title=" ">
<path fill="none" stroke="#63b8ff" d="M66.04,-670.66C82.64,-659.83 110.05,-642.78 135.25,-631 138.38,-629.54 141.62,-628.11 144.91,-626.72"/>
<polygon fill="#63b8ff" stroke="#63b8ff" points="146.17,-629.99 154.14,-623.01 143.56,-623.49 146.17,-629.99"/>
</a>
</g>
</g>
<!-- Node19 -->
<g id="Node000019" class="node">
<title>Node19</title>
<g id="a_Node000019"><a xlink:href="group__pca9685__base__driver.html#ga7cd58fe9c508703f1e3fccffcf2d3952" target="_top" xlink:title="set the output disable type">
<polygon fill="white" stroke="#666666" points="258.5,-572 154.75,-572 154.75,-540 258.5,-540 258.5,-572"/>
<text xml:space="preserve" text-anchor="start" x="162.75" y="-558.5" font-family="Helvetica,sans-Serif" font-size="10.00">pca9685_set_output</text>
<text xml:space="preserve" text-anchor="middle" x="206.62" y="-546.5" font-family="Helvetica,sans-Serif" font-size="10.00">_disable_type</text>
</a>
</g>
</g>
<!-- Node1&#45;&gt;Node19 -->
<g id="edge18_Node000001_Node000019" class="edge">
<title>Node1&#45;&gt;Node19</title>
<g id="a_edge18_Node000001_Node000019"><a xlink:title=" ">
<path fill="none" stroke="#63b8ff" d="M56.73,-670.66C69.07,-650.58 98.96,-606.09 135.25,-581 138.09,-579.04 141.1,-577.21 144.22,-575.51"/>
<polygon fill="#63b8ff" stroke="#63b8ff" points="145.63,-578.72 153.09,-571.2 142.56,-572.43 145.63,-578.72"/>
</a>
</g>
</g>
<!-- Node20 -->
<g id="Node000020" class="node">
<title>Node20</title>
<g id="a_Node000020"><a xlink:href="group__pca9685__base__driver.html#ga63f0778219e3445fc604cd00a40ceb30" target="_top" xlink:title="set the output driver type">
<polygon fill="white" stroke="#666666" points="258.5,-522 154.75,-522 154.75,-490 258.5,-490 258.5,-522"/>
<text xml:space="preserve" text-anchor="start" x="162.75" y="-508.5" font-family="Helvetica,sans-Serif" font-size="10.00">pca9685_set_output</text>
<text xml:space="preserve" text-anchor="middle" x="206.62" y="-496.5" font-family="Helvetica,sans-Serif" font-size="10.00">_driver</text>
</a>
</g>
</g>
<!-- Node1&#45;&gt;Node20 -->
<g id="edge19_Node000001_Node000020" class="edge">
<title>Node1&#45;&gt;Node20</title>
<g id="a_edge19_Node000001_Node000020"><a xlink:title=" ">
<path fill="none" stroke="#63b8ff" d="M53.65,-670.61C62.04,-643.61 88.11,-570.64 135.25,-531 138.08,-528.62 141.15,-526.46 144.37,-524.5"/>
<polygon fill="#63b8ff" stroke="#63b8ff" points="145.86,-527.68 153.08,-519.92 142.6,-521.48 145.86,-527.68"/>
</a>
</g>
</g>
<!-- Node21 -->
<g id="Node000021" class="node">
<title>Node21</title>
<g id="a_Node000021"><a xlink:href="group__pca9685__base__driver.html#gaa9e260023d4f31314e4f862f5129dfd9" target="_top" xlink:title="enable or disable output invert">
<polygon fill="white" stroke="#666666" points="258.5,-472 154.75,-472 154.75,-440 258.5,-440 258.5,-472"/>
<text xml:space="preserve" text-anchor="start" x="162.75" y="-458.5" font-family="Helvetica,sans-Serif" font-size="10.00">pca9685_set_output</text>
<text xml:space="preserve" text-anchor="middle" x="206.62" y="-446.5" font-family="Helvetica,sans-Serif" font-size="10.00">_invert</text>
</a>
</g>
</g>
<!-- Node1&#45;&gt;Node21 -->
<g id="edge20_Node000001_Node000021" class="edge">
<title>Node1&#45;&gt;Node21</title>
<g id="a_edge20_Node000001_Node000021"><a xlink:title=" ">
<path fill="none" stroke="#63b8ff" d="M52.04,-670.63C57.04,-637.96 76.82,-536.09 135.25,-481 137.99,-478.42 141.01,-476.1 144.21,-474.03"/>
<polygon fill="#63b8ff" stroke="#63b8ff" points="145.88,-477.1 152.95,-469.21 142.5,-470.97 145.88,-477.1"/>
</a>
</g>
</g>
<!-- Node22 -->
<g id="Node000022" class="node">
<title>Node22</title>
<g id="a_Node000022"><a xlink:href="group__pca9685__base__driver.html#ga050cae686aef7b94b3c4e3bcded77b6e" target="_top" xlink:title="set the clock pres cale">
<polygon fill="white" stroke="#666666" points="264.88,-422 148.38,-422 148.38,-402 264.88,-402 264.88,-422"/>
<text xml:space="preserve" text-anchor="middle" x="206.62" y="-408.5" font-family="Helvetica,sans-Serif" font-size="10.00">pca9685_set_prescaler</text>
</a>
</g>
</g>
<!-- Node1&#45;&gt;Node22 -->
<g id="edge21_Node000001_Node000022" class="edge">
<title>Node1&#45;&gt;Node22</title>
<g id="a_edge21_Node000001_Node000022"><a xlink:title=" ">
<path fill="none" stroke="#63b8ff" d="M50.85,-670.63C52.27,-632.59 62.44,-499.39 135.25,-431 136.31,-430 137.42,-429.05 138.58,-428.15"/>
<polygon fill="#63b8ff" stroke="#63b8ff" points="140.2,-431.27 146.81,-422.98 136.48,-425.34 140.2,-431.27"/>
</a>
</g>
</g>
<!-- Node23 -->
<g id="Node000023" class="node">
<title>Node23</title>
<g id="a_Node000023"><a xlink:href="group__pca9685__base__driver.html#gaa11d5337772a9d9600aa2a81b7d891c3" target="_top" xlink:title="enable or disable the register auto increment">
<polygon fill="white" stroke="#666666" points="261.12,-384 152.12,-384 152.12,-352 261.12,-352 261.12,-384"/>
<text xml:space="preserve" text-anchor="start" x="160.12" y="-370.5" font-family="Helvetica,sans-Serif" font-size="10.00">pca9685_set_register</text>
<text xml:space="preserve" text-anchor="middle" x="206.62" y="-358.5" font-family="Helvetica,sans-Serif" font-size="10.00">_auto_increment</text>
</a>
</g>
</g>
<!-- Node1&#45;&gt;Node23 -->
<g id="edge22_Node000001_Node000023" class="edge">
<title>Node1&#45;&gt;Node23</title>
<g id="a_edge22_Node000001_Node000023"><a xlink:title=" ">
<path fill="none" stroke="#63b8ff" d="M50.5,-670.74C50.57,-629.82 56.28,-476.48 135.25,-393 137.39,-390.74 139.75,-388.68 142.26,-386.81"/>
<polygon fill="#63b8ff" stroke="#63b8ff" points="144.01,-389.84 150.67,-381.61 140.33,-383.89 144.01,-389.84"/>
</a>
</g>
</g>
<!-- Node24 -->
<g id="Node000024" class="node">
<title>Node24</title>
<g id="a_Node000024"><a xlink:href="group__pca9685__base__driver.html#ga3064ad4f7252e2df977fcaf6d420e512" target="_top" xlink:title="enable or disable respond all call">
<polygon fill="white" stroke="#666666" points="262.25,-334 151,-334 151,-302 262.25,-302 262.25,-334"/>
<text xml:space="preserve" text-anchor="start" x="159" y="-320.5" font-family="Helvetica,sans-Serif" font-size="10.00">pca9685_set_respond</text>
<text xml:space="preserve" text-anchor="middle" x="206.62" y="-308.5" font-family="Helvetica,sans-Serif" font-size="10.00">_all_call</text>
</a>
</g>
</g>
<!-- Node1&#45;&gt;Node24 -->
<g id="edge23_Node000001_Node000024" class="edge">
<title>Node1&#45;&gt;Node24</title>
<g id="a_edge23_Node000001_Node000024"><a xlink:title=" ">
<path fill="none" stroke="#63b8ff" d="M51.9,-670.59C58.39,-619.28 89.19,-393.71 135.25,-343 137.16,-340.9 139.25,-338.98 141.49,-337.22"/>
<polygon fill="#63b8ff" stroke="#63b8ff" points="142.99,-340.41 149.46,-332.02 139.17,-334.55 142.99,-340.41"/>
</a>
</g>
</g>
<!-- Node25 -->
<g id="Node000025" class="node">
<title>Node25</title>
<g id="a_Node000025"><a xlink:href="group__pca9685__base__driver.html#gaf970983188f35c754fe0d8335f3ee94b" target="_top" xlink:title="enable or disable respond sub address 1">
<polygon fill="white" stroke="#666666" points="262.25,-284 151,-284 151,-252 262.25,-252 262.25,-284"/>
<text xml:space="preserve" text-anchor="start" x="159" y="-270.5" font-family="Helvetica,sans-Serif" font-size="10.00">pca9685_set_respond</text>
<text xml:space="preserve" text-anchor="middle" x="206.62" y="-258.5" font-family="Helvetica,sans-Serif" font-size="10.00">_subaddress_1</text>
</a>
</g>
</g>
<!-- Node1&#45;&gt;Node25 -->
<g id="edge24_Node000001_Node000025" class="edge">
<title>Node1&#45;&gt;Node25</title>
<g id="a_edge24_Node000001_Node000025"><a xlink:title=" ">
<path fill="none" stroke="#63b8ff" d="M51.54,-670.58C56.64,-614.82 83.19,-352.11 135.25,-293 137.12,-290.87 139.19,-288.92 141.41,-287.14"/>
<polygon fill="#63b8ff" stroke="#63b8ff" points="142.92,-290.34 149.32,-281.9 139.05,-284.51 142.92,-290.34"/>
</a>
</g>
</g>
<!-- Node26 -->
<g id="Node000026" class="node">
<title>Node26</title>
<g id="a_Node000026"><a xlink:href="group__pca9685__base__driver.html#ga64a68a941346c994a036a1f2bcbc4e73" target="_top" xlink:title="enable or disable respond sub address 2">
<polygon fill="white" stroke="#666666" points="262.25,-234 151,-234 151,-202 262.25,-202 262.25,-234"/>
<text xml:space="preserve" text-anchor="start" x="159" y="-220.5" font-family="Helvetica,sans-Serif" font-size="10.00">pca9685_set_respond</text>
<text xml:space="preserve" text-anchor="middle" x="206.62" y="-208.5" font-family="Helvetica,sans-Serif" font-size="10.00">_subaddress_2</text>
</a>
</g>
</g>
<!-- Node1&#45;&gt;Node26 -->
<g id="edge25_Node000001_Node000026" class="edge">
<title>Node1&#45;&gt;Node26</title>
<g id="a_edge25_Node000001_Node000026"><a xlink:title=" ">
<path fill="none" stroke="#63b8ff" d="M51.24,-670.84C55.05,-611.57 77.06,-310.68 135.25,-243 137.14,-240.81 139.23,-238.81 141.48,-236.98"/>
<polygon fill="#63b8ff" stroke="#63b8ff" points="143.16,-240.06 149.55,-231.61 139.28,-234.23 143.16,-240.06"/>
</a>
</g>
</g>
<!-- Node27 -->
<g id="Node000027" class="node">
<title>Node27</title>
<g id="a_Node000027"><a xlink:href="group__pca9685__base__driver.html#gaa13e9a04af249dc40f35fb0408985074" target="_top" xlink:title="enable or disable respond sub address 3">
<polygon fill="white" stroke="#666666" points="262.25,-184 151,-184 151,-152 262.25,-152 262.25,-184"/>
<text xml:space="preserve" text-anchor="start" x="159" y="-170.5" font-family="Helvetica,sans-Serif" font-size="10.00">pca9685_set_respond</text>
<text xml:space="preserve" text-anchor="middle" x="206.62" y="-158.5" font-family="Helvetica,sans-Serif" font-size="10.00">_subaddress_3</text>
</a>
</g>
</g>
<!-- Node1&#45;&gt;Node27 -->
<g id="edge26_Node000001_Node000027" class="edge">
<title>Node1&#45;&gt;Node27</title>
<g id="a_edge26_Node000001_Node000027"><a xlink:title=" ">
<path fill="none" stroke="#63b8ff" d="M51.04,-670.54C53.77,-606.63 71.09,-269.09 135.25,-193 137.12,-190.79 139.19,-188.77 141.42,-186.93"/>
<polygon fill="#63b8ff" stroke="#63b8ff" points="143.11,-190.02 149.46,-181.54 139.21,-184.21 143.11,-190.02"/>
</a>
</g>
</g>
<!-- Node28 -->
<g id="Node000028" class="node">
<title>Node28</title>
<g id="a_Node000028"><a xlink:href="group__pca9685__base__driver.html#gadec347a87102661d502dc6925a5fe2eb" target="_top" xlink:title="enable or disable the sleep mode">
<polygon fill="white" stroke="#666666" points="271.25,-134 142,-134 142,-114 271.25,-114 271.25,-134"/>
<text xml:space="preserve" text-anchor="middle" x="206.62" y="-120.5" font-family="Helvetica,sans-Serif" font-size="10.00">pca9685_set_sleep_mode</text>
</a>
</g>
</g>
<!-- Node1&#45;&gt;Node28 -->
<g id="edge27_Node000001_Node000028" class="edge">
<title>Node1&#45;&gt;Node28</title>
<g id="a_edge27_Node000001_Node000028"><a xlink:title=" ">
<path fill="none" stroke="#63b8ff" d="M50.77,-670.74C51.93,-603.4 61.66,-224.97 135.25,-143 135.73,-142.47 136.21,-141.95 136.72,-141.45"/>
<polygon fill="#63b8ff" stroke="#63b8ff" points="138.8,-144.27 144.58,-135.39 134.52,-138.72 138.8,-144.27"/>
</a>
</g>
</g>
<!-- Node29 -->
<g id="Node000029" class="node">
<title>Node29</title>
<g id="a_Node000029"><a xlink:href="group__pca9685__base__driver.html#gab9e26dd34555b80962e7febe8014efa6" target="_top" xlink:title="set the sub address 1">
<polygon fill="white" stroke="#666666" points="275.38,-96 137.88,-96 137.88,-76 275.38,-76 275.38,-96"/>
<text xml:space="preserve" text-anchor="middle" x="206.62" y="-82.5" font-family="Helvetica,sans-Serif" font-size="10.00">pca9685_set_subaddress_1</text>
</a>
</g>
</g>
<!-- Node1&#45;&gt;Node29 -->
<g id="edge28_Node000001_Node000029" class="edge">
<title>Node1&#45;&gt;Node29</title>
<g id="a_edge28_Node000001_Node000029"><a xlink:title=" ">
<path fill="none" stroke="#63b8ff" d="M50.65,-670.93C51.04,-601.45 56.7,-193.4 135.25,-105 135.72,-104.47 136.21,-103.95 136.71,-103.45"/>
<polygon fill="#63b8ff" stroke="#63b8ff" points="138.79,-106.26 144.54,-97.36 134.5,-100.73 138.79,-106.26"/>
</a>
</g>
</g>
<!-- Node30 -->
<g id="Node000030" class="node">
<title>Node30</title>
<g id="a_Node000030"><a xlink:href="group__pca9685__base__driver.html#ga99897d8ea5a82b5e0dfd8aad34162856" target="_top" xlink:title="set the sub address 2">
<polygon fill="white" stroke="#666666" points="275.38,-58 137.88,-58 137.88,-38 275.38,-38 275.38,-58"/>
<text xml:space="preserve" text-anchor="middle" x="206.62" y="-44.5" font-family="Helvetica,sans-Serif" font-size="10.00">pca9685_set_subaddress_2</text>
</a>
</g>
</g>
<!-- Node1&#45;&gt;Node30 -->
<g id="edge29_Node000001_Node000030" class="edge">
<title>Node1&#45;&gt;Node30</title>
<g id="a_edge29_Node000001_Node000030"><a xlink:title=" ">
<path fill="none" stroke="#63b8ff" d="M50.55,-670.74C50.24,-598.1 51.87,-161.68 135.25,-67 135.72,-66.47 136.2,-65.95 136.7,-65.44"/>
<polygon fill="#63b8ff" stroke="#63b8ff" points="138.79,-68.25 144.51,-59.34 134.48,-62.73 138.79,-68.25"/>
</a>
</g>
</g>
<!-- Node31 -->
<g id="Node000031" class="node">
<title>Node31</title>
<g id="a_Node000031"><a xlink:href="group__pca9685__base__driver.html#gafc962da8b6bc7773ef2cd85e231078f2" target="_top" xlink:title="set the sub address 3">
<polygon fill="white" stroke="#666666" points="275.38,-20 137.88,-20 137.88,0 275.38,0 275.38,-20"/>
<text xml:space="preserve" text-anchor="middle" x="206.62" y="-6.5" font-family="Helvetica,sans-Serif" font-size="10.00">pca9685_set_subaddress_3</text>
</a>
</g>
</g>
<!-- Node1&#45;&gt;Node31 -->
<g id="edge30_Node000001_Node000031" class="edge">
<title>Node1&#45;&gt;Node31</title>
<g id="a_edge30_Node000001_Node000031"><a xlink:title=" ">
<path fill="none" stroke="#63b8ff" d="M50.46,-670.6C49.46,-594.99 47.01,-130 135.25,-29 135.72,-28.46 136.2,-27.94 136.69,-27.43"/>
<polygon fill="#63b8ff" stroke="#63b8ff" points="138.78,-30.24 144.48,-21.31 134.46,-24.74 138.78,-30.24"/>
</a>
</g>
</g>
</g>
</svg>
