<?xml version="1.0" encoding="UTF-8" standalone="no"?>
<!DOCTYPE svg PUBLIC "-//W3C//DTD SVG 1.1//EN"
 "http://www.w3.org/Graphics/SVG/1.1/DTD/svg11.dtd">
<!-- Generated by graphviz version 13.1.0 (20250701.0955)
 -->
<!-- Title: pca9685_basic_deinit Pages: 1 -->
<svg width="257pt" height="66pt"
 viewBox="0.00 0.00 257.00 66.00" xmlns="http://www.w3.org/2000/svg" xmlns:xlink="http://www.w3.org/1999/xlink">
<g id="graph0" class="graph" transform="scale(1 1) rotate(0) translate(4 62)">
<title>pca9685_basic_deinit</title>
<!-- Node1 -->
<g id="Node000001" class="node">
<title>Node1</title>
<g id="a_Node000001"><a xlink:title="basic example deinit">
<polygon fill="#999999" stroke="#666666" points="109.75,-39 0,-39 0,-19 109.75,-19 109.75,-39"/>
<text xml:space="preserve" text-anchor="middle" x="54.88" y="-25.5" font-family="Helvetica,sans-Serif" font-size="10.00">pca9685_basic_deinit</text>
</a>
</g>
</g>
<!-- Node2 -->
<g id="Node000002" class="node">
<title>Node2</title>
<g id="a_Node000002"><a xlink:href="group__pca9685__base__driver.html#gaee1e63e56cfea0485102d56b9962bc5a" target="_top" xlink:title="close the chip">
<polygon fill="white" stroke="#666666" points="237.88,-58 156.62,-58 156.62,-38 237.88,-38 237.88,-58"/>
<text xml:space="preserve" text-anchor="middle" x="197.25" y="-44.5" font-family="Helvetica,sans-Serif" font-size="10.00">pca9685_deinit</text>
</a>
</g>
</g>
<!-- Node1&#45;&gt;Node2 -->
<g id="edge1_Node000001_Node000002" class="edge">
<title>Node1&#45;&gt;Node2</title>
<g id="a_edge1_Node000001_Node000002"><a xlink:title=" ">
<path fill="none" stroke="#63b8ff" d="M110.15,-36.35C121.72,-37.91 133.9,-39.56 145.34,-41.11"/>
<polygon fill="#63b8ff" stroke="#63b8ff" points="144.61,-44.54 154.99,-42.42 145.55,-37.61 144.61,-44.54"/>
</a>
</g>
</g>
<!-- Node3 -->
<g id="Node000003" class="node">
<title>Node3</title>
<g id="a_Node000003"><a xlink:href="group__pca9685__base__driver.html#ga4368b3f7ec9db9155f4e1196396d4353" target="_top" xlink:title="set the chip active">
<polygon fill="white" stroke="#666666" points="248.75,-20 145.75,-20 145.75,0 248.75,0 248.75,-20"/>
<text xml:space="preserve" text-anchor="middle" x="197.25" y="-6.5" font-family="Helvetica,sans-Serif" font-size="10.00">pca9685_set_active</text>
</a>
</g>
</g>
<!-- Node1&#45;&gt;Node3 -->
<g id="edge2_Node000001_Node000003" class="edge">
<title>Node1&#45;&gt;Node3</title>
<g id="a_edge2_Node000001_Node000003"><a xlink:title=" ">
<path fill="none" stroke="#63b8ff" d="M110.15,-21.65C118.01,-20.59 126.16,-19.49 134.17,-18.4"/>
<polygon fill="#63b8ff" stroke="#63b8ff" points="134.4,-21.9 143.84,-17.09 133.46,-14.97 134.4,-21.9"/>
</a>
</g>
</g>
</g>
</svg>
